<?xml version="1.0" encoding="UTF-8"?>
<svg xmlns="http://www.w3.org/2000/svg" viewBox="0 0 1000 1000" role="img" aria-label="Bluesky account">
  <path
    d="M500 670.625c0-4.083 1.563.521 4.938 10.417 18.208 53.688 89.354 263.146 252.001 95.688 85.627-88.167 46-176.313-109.896-202.938 89.167 15.208 189.459-9.938 216.958-108.584 7.916-28.375 21.416-203.167 21.416-226.771 0-118.25-103.333-81.084-167.084-33.063-88.375 66.562-183.438 201.521-218.333 273.958-34.896-72.437-129.958-207.396-218.334-273.958-63.75-48.021-167.083-85.188-167.083 33.063 0 23.604 13.479 198.396 21.416 226.771 27.5 98.646 127.792 123.792 216.959 108.584-155.896 26.625-195.522 114.771-109.896 202.938 162.646 167.458 233.792-42 252-95.667 3.375-9.917 4.937-14.521 4.937-10.438"
    fill="none"
    stroke="#111111"
    stroke-width="40"
    stroke-linecap="round"
    stroke-linejoin="round"
  />
</svg>
