<?xml version="1.0" encoding="UTF-8"?>
<svg xmlns="http://www.w3.org/2000/svg" viewBox="0 0 960 960" role="img" aria-label="Bluesky account device">
  <path fill="#111111" d="M480 644.4c0-3.92 1.5.5 4.74 10c17.48 51.54 85.78 252.62 241.92 91.86 82.2-84.64 44.16-169.26-105.36-194.82 85.52 14.58 181.8-9.52 208.2-104.24 7.6-27.24 20.54-195.04 20.54-217.7 0-113.52-99.2-77.84-160.4-31.74-84.84 63.9-176.1 193.46-209.64 262.8-33.54-69.34-124.8-198.9-209.64-262.8-61.2-46.1-160.4-81.78-160.4 31.74 0 22.66 12.94 190.46 20.54 217.7 26.4 94.72 122.68 118.82 208.2 104.24-149.52 25.56-187.56 110.18-105.36 194.82 156.14 160.76 224.44-40.32 241.92-91.82 3.24-9.54 4.74-13.96 4.74-10.04"/>
</svg>
